<svg width="181" height="190" viewBox="0 0 181 190" fill="none" xmlns="http://www.w3.org/2000/svg">
<path d="M104.698 24.1095L100.504 44.5681L167.967 64.4704L175.423 44.3064L104.698 24.1095Z" fill="#FFE200"/>
<path d="M9.84348 132.81C9.84348 132.81 7.05349 142.835 12.1273 145.5C17.2012 148.165 48.3507 161.193 64.9943 162.097C64.9943 162.097 77.3432 159.398 81.6832 162.848C85.9779 166.452 85.5523 170.165 98.6897 173.874C111.827 177.582 124.92 184.282 128.272 181.432C131.624 178.583 137.041 168.165 137.041 168.165C137.041 168.165 64.1331 153.666 33.8171 141.217C3.19309 128.678 9.84348 132.81 9.84348 132.81Z" fill="#0098F7"/>
<path d="M50.9694 161.965C20.3184 152.923 6.57382 147.867 6.04799 141.704C6.09329 141.55 6.09329 141.55 5.98456 141.351C6.057 140.538 6.64489 121.519 20.0083 115.949C26.7127 113.087 35.474 115.171 44.7427 117.237C56.521 119.878 67.792 122.535 73.8257 115.136C81.5082 105.553 93.909 56.1404 99.2986 35.0332C100.712 29.1082 101.781 24.9175 102.369 22.9216C102.931 21.5853 104.326 20.8287 105.558 21.1922L176.102 42.0032C176.718 42.185 177.244 42.6738 177.57 43.2707C177.896 43.8676 177.869 44.5272 177.688 45.1413C174.436 55.0298 170.051 65.9194 165.286 77.5311C158.99 93.1973 151.707 111.076 146.045 130.267C145.049 133.644 144.913 136.942 144.795 140.746C144.578 146.022 144.334 151.958 142.024 159.788C138.31 172.378 134.985 177.405 134.36 178.389C133.065 180.51 130.138 185.321 124.285 183.594L91.016 173.779C88.7056 173.098 86.6217 171.649 85.2263 169.568C85.1176 169.369 81.611 163.662 76.492 163.987C75.8306 163.959 75.1239 164.084 74.4173 164.21C69.2983 164.535 61.9052 165.191 50.9694 161.965ZM10.8589 141.287C12.2816 145.545 39.236 153.497 52.3282 157.359C62.4939 160.358 68.9809 159.936 74.1452 159.456C74.8519 159.331 75.6673 159.405 76.374 159.28C84.3832 158.805 89.2398 166.747 89.5026 166.991C90.2003 168.031 91.2966 168.855 92.5288 169.219L125.798 179.034C127.339 179.488 128.353 179.454 130.41 175.888C130.455 175.735 130.455 175.735 130.654 175.627C130.654 175.627 133.952 171.259 137.711 158.516C139.84 151.3 139.994 145.671 140.12 140.702C140.283 136.744 140.401 132.941 141.578 128.949C147.331 109.451 154.614 91.5725 160.955 75.7528C165.295 65.0168 169.407 55.0484 172.433 45.9275L106.51 26.4796C105.831 28.7826 105.034 32.0521 104.01 36.0893C97.796 61.1256 86.0566 107.73 77.6402 118.097C69.7584 127.788 55.9324 124.711 43.7372 121.781C35.284 119.787 27.2475 118.084 21.9384 120.19C12.1355 124.474 10.9404 139.308 10.8589 141.287Z" fill="#282D33"/>
<path d="M37.7585 144.884C24.5123 140.976 9.7892 134.129 9.21839 133.794C8.03148 133.277 7.46967 131.776 7.98604 130.593C8.50241 129.41 10.0064 128.853 11.1933 129.37C11.3473 129.415 26.1792 136.461 39.1173 140.278C40.3495 140.641 41.1106 142.034 40.7483 143.262C40.386 144.49 39.1448 145.293 37.7585 144.884Z" fill="#282D33"/>
<path d="M111.899 165.421C110.667 165.057 109.906 163.664 110.268 162.436C110.631 161.208 112.026 160.451 113.258 160.815C128.045 165.177 136.951 165.635 137.105 165.68C138.428 165.737 139.433 166.868 139.379 168.187C139.325 169.506 138.192 170.507 136.87 170.451C136.362 170.468 127.148 169.919 111.899 165.421Z" fill="#282D33"/>
<path d="M167.287 66.7729L99.0541 46.6434C97.8219 46.2799 97.0608 44.8871 97.4231 43.6589C97.7855 42.4307 99.1807 41.674 100.413 42.0375L168.646 62.167C169.878 62.5305 170.639 63.9233 170.277 65.1516C169.915 66.3798 168.52 67.1364 167.287 66.7729Z" fill="#282D33"/>
</svg>
