<svg width="177" height="154" viewBox="0 0 177 154" fill="none" xmlns="http://www.w3.org/2000/svg">
<path d="M38.6416 127.944C38.6416 127.944 48.7489 127.256 60.7241 122.287C60.7241 122.287 78.1445 117.756 101.519 108.056C124.894 98.3573 140.405 89.2241 140.405 89.2241C140.405 89.2241 170.284 72.1062 160.005 77.585C161.788 77.6541 163.456 77.771 164.894 77.9835C168.421 78.6774 170.379 83.3941 168.216 86.3141C163.506 92.8533 149.753 105.572 107.84 122.964C65.9269 140.355 47.2091 141.11 39.2532 139.827C35.6585 139.295 33.5862 134.627 35.7011 131.592C36.3358 130.519 37.4312 129.255 38.6416 127.944Z" fill="#FFE200"/>
<path d="M47.7328 79.2676C47.7328 79.2676 44.7987 68.6185 42.8532 57.4244L47.7328 79.2676Z" fill="#0098F7"/>
<path d="M118.892 49.7405C118.892 49.7405 113.425 40.1426 106.874 30.8596L118.892 49.7405Z" fill="#0098F7"/>
<path d="M57.2069 46.4791C45.0014 51.5437 29.4871 67.8251 30.856 95.8448L70.954 90.6683C66.512 76.0601 57.9287 44.966 57.5497 42.4263C57.0388 38.5928 59.721 34.6481 63.9814 32.8802L69.2781 30.6824L74.5748 28.4846C78.8351 26.7168 83.5222 27.6037 85.8755 30.6726C87.4059 32.7345 103.291 60.9337 110.449 74.2801L141.724 48.4921C123.072 28.5879 101.192 28.2275 89.1021 33.2443" fill="#0098F7"/>
<path d="M111.28 75.958C110.359 76.3402 109.381 75.9367 108.932 75.1792C101.325 61.0752 85.8891 33.6335 84.4541 31.8017C82.6653 29.4425 78.7449 28.7768 75.2906 30.2102L64.6972 34.6059C61.2428 36.0392 59.0605 39.2372 59.3524 42.2175C59.636 44.5272 68.2867 75.4585 72.6612 90.2295C72.9279 91.1976 72.4083 92.2223 71.4394 92.4895C70.4705 92.7567 69.4455 92.2381 69.1788 91.27C64.8323 76.8919 56.1058 45.4526 55.7465 42.635C55.1317 37.9008 58.3139 33.2092 63.3803 31.1069L73.9736 26.7112C79.04 24.609 84.6089 25.6694 87.5266 29.448C89.3154 31.8073 105.63 61.0418 112.358 73.3529C112.855 74.2254 112.546 75.4324 111.625 75.8147C111.395 75.9102 111.28 75.958 111.28 75.958Z" fill="#282D33"/>
<path d="M48.4486 80.9934C48.3335 81.0412 48.3335 81.0412 48.2183 81.089C47.2494 81.3562 46.2244 80.8375 45.9099 79.7544C45.8622 79.6394 42.8804 68.8753 41.05 57.6334C40.8984 56.6175 41.5809 55.66 42.5975 55.5079C43.6141 55.3557 44.5718 56.0372 44.7233 57.053C46.5734 68.0171 49.5075 78.6662 49.5552 78.7812C49.7742 79.6343 49.3698 80.6112 48.4486 80.9934Z" fill="#282D33"/>
<path d="M119.608 51.4661C118.802 51.8006 117.71 51.4448 117.26 50.6873C117.213 50.5723 111.793 41.0894 105.289 31.9214C104.677 31.0967 104.871 29.9374 105.697 29.3251C106.523 28.7128 107.682 28.9058 108.295 29.7306C114.961 38.9657 120.476 48.6787 120.524 48.7938C121.021 49.6663 120.712 50.8733 119.838 51.3706C119.723 51.4183 119.608 51.4661 119.608 51.4661Z" fill="#282D33"/>
<path d="M102.283 109.897C79.0235 119.548 61.4879 124.128 61.2099 124.108C60.241 124.375 59.1682 123.742 58.9015 122.774C58.6348 121.806 59.2695 120.733 60.2384 120.466C60.3536 120.418 77.774 115.886 100.803 106.331C123.832 96.7749 139.228 87.6895 139.458 87.5939C140.332 87.0966 141.539 87.4046 142.036 88.2772C142.533 89.1497 142.224 90.3567 141.351 90.854C141.121 90.9495 125.542 100.246 102.283 109.897Z" fill="#282D33"/>
<path d="M108.489 124.852C68.0727 141.623 48.2793 143.363 38.8855 141.867C36.4506 141.529 34.4399 139.936 33.4375 137.52C32.4828 135.219 32.6121 132.604 33.9771 130.689C34.6119 129.616 35.5246 128.563 36.5526 127.462C17.5652 80.728 37.9527 52.4457 56.4911 44.7533C57.4123 44.3711 58.5524 44.8419 58.9343 45.7622C59.3162 46.6825 58.8443 47.8223 57.9232 48.2045C40.6514 55.3714 21.7524 82.3617 40.3691 127.227C40.6078 127.802 40.5685 128.358 40.2511 128.894C40.1837 129.057 40.0011 129.268 39.7708 129.363C38.6278 130.512 37.6476 131.728 36.8977 132.848C36.4455 133.71 36.4145 134.936 36.8919 136.087C37.3692 137.237 38.3746 138.034 39.3715 138.159C46.7237 139.289 65.374 138.697 107.057 121.401C148.739 104.105 162.377 91.4338 166.722 85.3158C167.29 84.4061 167.483 83.2469 167.006 82.0965C166.529 80.9461 165.639 80.1019 164.594 79.8611C163.271 79.6009 161.718 79.4362 159.983 79.4821C159.196 79.5387 158.564 78.9918 158.278 78.3016C139.661 33.436 107.205 27.7551 89.9336 34.9219C89.0124 35.3042 87.8722 34.8334 87.4904 33.913C87.1085 32.9927 87.4652 31.9008 88.3864 31.5185C106.925 23.8261 141.346 29.3656 161.14 75.7656C162.645 75.8152 163.92 75.9604 165.243 76.2207C167.61 76.7216 169.506 78.3623 170.46 80.6631C171.415 82.9639 171.123 85.5124 169.758 87.4273C164 95.3451 148.79 108.129 108.489 124.852Z" fill="#282D33"/>
</svg>
