<svg width="186" height="135" viewBox="0 0 186 135" fill="none" xmlns="http://www.w3.org/2000/svg">
<path d="M34.116 29.8268C34.116 29.8268 24.858 54.5805 26.6568 56.9161C26.6568 56.9161 8.21798 53.3993 13.6202 41.5432C19.0224 29.6871 18.5423 27.7839 22.2212 27.1021C25.9638 26.2807 34.116 29.8268 34.116 29.8268Z" fill="#0098F7"/>
<path d="M159.275 86.6864C159.275 86.6864 171.812 93.915 170.566 97.3897C169.319 100.864 163.419 116.031 159.246 116.319C155.073 116.607 144.347 112.057 144.347 112.057C144.347 112.057 154.542 101.879 159.275 86.6864Z" fill="#0098F7"/>
<path d="M115.348 116.193C98.055 108.313 95.6155 99.622 93.4408 92.5671C92.177 87.9487 91.1655 84.6243 86.348 82.2607C81.4033 80.1761 78.1674 81.7337 73.9165 83.6709C67.3052 86.7224 59.0063 90.5209 41.7133 82.6413C33.6247 78.9558 28.29 73.6615 25.7851 66.9616C21.2062 54.0949 28.3491 39.1578 32.6196 30.1549C33.1281 29.039 33.6365 27.9232 34.0179 27.0863C40.2463 13.4169 65.7253 16.2674 107.703 35.3944C149.68 54.5213 168.549 71.8781 162.321 85.5474C161.876 86.5238 161.431 87.5002 160.923 88.6161C156.931 97.746 150.346 112.937 137.632 117.924C130.932 120.43 123.437 119.879 115.348 116.193ZM89.5098 78.6481C95.2523 81.9385 96.5921 86.76 97.9195 91.239C99.727 97.6212 101.914 105.019 117.255 112.008C124.228 115.186 130.556 115.711 135.898 113.597C146.925 109.357 153.001 95.2817 156.675 86.8492C157.184 85.7333 157.692 84.6175 158.137 83.6411C162.967 73.0404 143.868 56.9266 105.796 39.5789C67.7235 22.2312 43.0319 18.3919 38.2017 28.9926C37.7568 29.969 37.3119 30.9454 36.7399 32.2007C32.7871 40.5062 26.0891 54.4669 30.1879 65.4304C32.2373 70.9121 36.7865 75.3432 43.62 78.4569C58.9605 85.4468 65.8384 82.1798 71.98 79.4197C76.2945 77.343 80.7485 75.3298 86.9995 77.5043C87.4814 77.5555 87.8998 77.7461 88.3182 77.9367C88.7366 78.1274 89.155 78.318 89.5098 78.6481Z" fill="#282D33"/>
<path d="M25.7533 60.378L15.8516 55.8663C10.1214 52.9185 8.92294 46.3084 10.8932 41.9845L16.7403 29.152C18.1385 26.0834 21.6162 23.6254 25.7118 24.9862L35.97 27.976C37.1493 28.3448 37.9472 29.5506 37.5146 30.8695C37.1457 32.0489 35.9399 32.8471 34.6212 32.4146L24.363 29.4249C22.6259 28.8018 21.3689 30.082 20.924 31.0584L15.0769 43.8908C13.9329 46.4015 14.7537 50.1443 17.8342 51.8848L27.5964 56.333C28.712 56.8413 29.2434 58.2625 28.7349 59.3784C28.2265 60.4942 26.8689 60.8863 25.7533 60.378Z" fill="#282D33"/>
<path d="M142.76 113.692C141.644 113.184 141.113 111.762 141.621 110.646C142.13 109.531 143.551 108.999 144.667 109.507L154.568 114.019C157.561 115.214 161.127 113.302 162.207 110.93L168.054 98.098C168.499 97.1216 168.64 95.3331 167.17 94.4946L158.183 88.7152C157.13 88.0673 156.802 86.5702 157.45 85.5179C158.098 84.4656 159.595 84.137 160.647 84.7849L169.634 90.5643C173.209 92.6984 173.636 96.9357 172.238 100.004L166.391 112.837C164.421 117.161 158.646 120.594 152.801 118.267L142.76 113.692Z" fill="#282D33"/>
<path d="M90.8587 74.2095C76.6339 67.728 71.3021 85.3432 48.0124 74.7312C21.3756 62.5942 37.6701 40.8783 41.6106 32.2303C45.551 23.5824 65.1215 24.246 104.589 42.2291C144.056 60.2123 157.537 74.6088 153.597 83.2567C149.656 91.9047 143.961 118.45 117.324 106.313C94.034 95.701 103.828 80.1192 89.6036 73.6376" fill="#FFE200"/>
</svg>
