<svg width="134" height="190" viewBox="0 0 134 190" fill="none" xmlns="http://www.w3.org/2000/svg">
<g clip-path="url(#clip0)">
<path d="M31.3782 142.377L20.9925 170.839L94.3682 186.728L98.1972 155.547" fill="#FFE200"/>
<path d="M76.3438 24.7235C77.1168 21.1537 74.2883 16.9664 68.3934 15.6899C62.4985 14.4134 58.6177 19.5851 57.5422 24.5518L44.4678 84.9287" fill="#0098F7"/>
<path d="M46.4844 75.6161L43.5731 59.0618C42.7871 53.6919 37.174 50.3641 32.1039 52.0285C28.0654 53.4288 25.573 57.4388 26.2504 61.8102L34.2863 106.447C37.2261 125.12 35.1189 130.351 35.1189 130.351C35.1189 130.351 34.1649 135.507 31.3778 142.378L20.9921 170.839L65.6556 74.0805L77.0159 21.6193" fill="#0098F7"/>
<path d="M43.9636 87.2568C42.7225 86.9881 41.8719 85.6665 42.1408 84.4248L55.1816 24.2031C56.5932 17.6842 61.728 11.9716 68.8639 13.5169C76.1549 15.0957 79.6453 20.7262 78.637 25.3826C78.3681 26.6242 77.0469 27.4756 75.8059 27.2068C74.5649 26.9381 73.7143 25.6165 73.9831 24.3748C74.4537 22.2018 72.3543 19.1474 67.8556 18.1732C63.3568 17.199 60.5749 21.7962 59.8355 25.2109L46.761 85.5878C46.4921 86.8295 45.3597 87.5592 43.9636 87.2568Z" fill="#282D33"/>
<path d="M109.792 43.5033C108.551 43.2345 107.7 41.9129 107.969 40.6712L109.448 33.842C110.221 30.2721 108.256 26.5968 104.91 25.5474C103.082 24.9891 101.086 25.2068 99.4214 26.1461C97.7564 27.0855 96.5774 28.7801 96.1741 30.6426C95.9052 31.8843 94.584 32.7356 93.343 32.4669C92.102 32.1981 91.2514 30.8765 91.5202 29.6348L92.4613 25.2889C93.2344 21.7191 91.2694 18.0438 87.9238 16.9943C86.0959 16.436 84.0999 16.6537 82.4349 17.5931C80.7698 18.5324 79.5909 20.227 79.1875 22.0895C78.9186 23.3312 77.5975 24.1825 76.3564 23.9138C75.1154 23.6451 74.2648 22.3234 74.5337 21.0818C75.2059 17.9775 77.2742 15.1757 80.0717 13.5066C82.8692 11.8376 86.207 11.4229 89.3975 12.4388C93.6403 13.845 96.5696 17.5666 97.2806 21.7828C100.044 20.269 103.382 19.8544 106.418 20.8366C112.023 22.7004 115.446 28.6413 114.135 34.6945L112.657 41.5238C112.354 42.9207 111.033 43.772 109.792 43.5033Z" fill="#282D33"/>
<path d="M93.8636 189.056L20.4879 173.167C19.8674 173.032 19.3141 172.588 18.9495 172.021C18.585 171.455 18.5979 170.645 18.7324 170.024L29.118 141.563C31.8715 134.847 32.7919 129.847 32.7919 129.847C32.8256 129.692 32.8592 129.537 32.8928 129.381C32.8928 129.381 34.6896 124.083 31.7913 106.719L23.8769 62.271C22.9358 56.8675 26.1624 51.7167 31.2661 49.8971C34.4282 48.7944 37.9082 49.223 40.6204 50.9478C43.4877 52.7061 45.3104 55.5381 45.9129 58.7559L48.8242 75.3102C49.0207 76.6527 48.1313 77.76 46.9109 78.1457C45.5691 78.3426 44.4625 77.453 44.0773 76.2321L41.1659 59.6778C40.9151 57.8361 39.8215 56.1369 38.0944 55.1129C36.556 53.9674 34.6609 53.7195 32.9079 54.3148C29.9346 55.2958 28.1429 58.3201 28.6238 61.3491L36.6597 105.986C39.4366 123.161 37.9034 129.491 37.4458 130.855C37.2441 131.786 36.1686 136.753 33.4823 143.158L24.0119 168.893L92.2683 183.674L95.8361 155.198C96.6945 148.235 97.2116 145.097 97.2116 145.097C98.9929 136.871 101.801 130.654 104.353 124.87C106.837 119.396 109.288 114.077 110.733 107.403L123.472 48.5779C124.144 45.4737 122.422 42.176 119.542 41.2273C117.869 40.7026 116.217 40.8323 114.707 41.8052C113.231 42.623 112.274 44.0407 111.904 45.748C111.635 46.9897 110.314 47.841 109.073 47.5723C107.832 47.3035 106.982 45.9819 107.25 44.7402C107.889 41.7912 109.735 39.2662 112.344 37.7187C114.953 36.1713 118.102 35.8783 120.982 36.827C126.155 38.4348 129.302 44.1533 128.092 49.7409L115.387 108.41C113.841 115.55 111.289 121.335 108.805 126.809C106.287 132.438 103.546 138.344 101.899 145.949C101.899 145.949 101.382 149.087 100.591 155.74L96.7619 186.921C96.6275 187.542 96.3379 188.13 95.7717 188.494C95.1718 189.014 94.4841 189.191 93.8636 189.056Z" fill="#282D33"/>
<path d="M100.986 84.1684C99.7448 83.8996 98.8942 82.578 99.1631 81.3363L107.969 40.6712C108.238 39.4295 109.559 38.5782 110.8 38.8469C112.041 39.1156 112.892 40.4373 112.623 41.6789L103.817 82.3441C103.548 83.5858 102.227 84.4371 100.986 84.1684Z" fill="#282D33"/>
<path d="M82.9906 80.2716C81.7496 80.0029 80.899 78.6813 81.1679 77.4396L91.5535 29.4795C91.8223 28.2378 93.1435 27.3865 94.3845 27.6553C95.6256 27.924 96.4762 29.2456 96.2073 30.4873L85.8217 78.4474C85.5528 79.689 84.3868 80.574 82.9906 80.2716Z" fill="#282D33"/>
<path d="M65.1512 76.4083C63.9102 76.1396 63.0595 74.818 63.3284 73.5763L74.6887 21.1151C74.9576 19.8735 76.2788 19.0221 77.5198 19.2909C78.7608 19.5596 79.6114 20.8812 79.3426 22.1229L67.9823 74.5841C67.7134 75.8258 66.3922 76.6771 65.1512 76.4083Z" fill="#282D33"/>
<path d="M59.2075 150.354L32.8357 144.643C31.5947 144.374 30.7441 143.053 31.0129 141.811C31.2818 140.569 32.603 139.718 33.844 139.987L60.2158 145.697C61.4569 145.966 62.3075 147.288 62.0386 148.529C61.7697 149.771 60.4485 150.622 59.2075 150.354Z" fill="#282D33"/>
</g>
<defs>
<clipPath id="clip0">
<rect width="99.8373" height="171.671" fill="white" transform="translate(36.3438 0.950195) rotate(12.2186)"/>
</clipPath>
</defs>
</svg>
