<svg width="203" height="184" viewBox="0 0 203 184" fill="none" xmlns="http://www.w3.org/2000/svg">
<g clip-path="url(#clip0)">
<path d="M15.1947 92.785C24.0883 68.6911 36.8451 64.0475 45.9656 67.4141L29.1175 113.058L24.6984 125.03L22.0469 132.213C12.9816 128.697 6.30115 116.879 15.1947 92.785Z" fill="#0098F7"/>
<path d="M22.1023 132.064L29.2791 134.713C33.9141 136.424 39.033 134.062 40.7455 129.423L58.4774 81.3849C60.1898 76.7457 57.8328 71.6246 53.1978 69.9138L46.021 67.2646L29.1729 112.908L24.7538 124.881L22.1023 132.064Z" fill="#FFE200"/>
<path d="M166.207 148.527C175.101 124.433 168.42 112.615 159.3 109.248L142.452 154.892L138.033 166.864L135.381 174.047C144.557 177.264 157.314 172.621 166.207 148.527Z" fill="#0098F7"/>
<path d="M135.586 173.953L128.409 171.304C123.774 169.593 121.417 164.472 123.129 159.833L140.861 111.794C142.574 107.155 147.693 104.794 152.328 106.504L159.504 109.154L142.656 154.797L138.237 166.769L135.586 173.953Z" fill="#FFE200"/>
<path d="M134.758 176.198L127.581 173.549C121.75 171.396 118.733 164.841 120.887 159.005L138.619 110.967C140.773 105.13 147.326 102.107 153.157 104.26L160.334 106.909C161.53 107.35 162.19 108.784 161.748 109.982L144.9 155.625C144.458 156.823 143.024 157.484 141.828 157.042C140.632 156.601 139.972 155.167 140.414 153.97L156.378 110.72L151.444 108.899C148.005 107.63 144.17 109.275 142.955 112.567L125.223 160.605C123.953 164.047 125.65 167.734 129.088 169.004L136.415 171.708C137.611 172.15 138.271 173.584 137.829 174.781C137.387 175.978 135.954 176.639 134.758 176.198Z" fill="#282D33"/>
<path d="M165.379 150.772C164.182 150.33 163.523 148.896 163.964 147.699C172.195 125.401 166.545 114.473 158.621 111.548C157.425 111.107 156.765 109.673 157.207 108.475C157.648 107.278 158.932 106.562 160.278 107.059C170.445 110.811 177.896 123.764 168.45 149.355C168.008 150.552 166.724 151.268 165.379 150.772Z" fill="#282D33"/>
<path d="M134.757 176.198C133.561 175.756 132.901 174.322 133.343 173.125C133.785 171.928 135.218 171.267 136.414 171.708C144.339 174.633 155.939 169.903 164.169 147.605C164.611 146.407 166.044 145.746 167.241 146.188C168.437 146.629 169.097 148.063 168.655 149.26C159.004 174.945 144.924 179.951 134.757 176.198Z" fill="#282D33"/>
<path d="M28.4506 136.958L21.2738 134.309C20.0777 133.867 19.4178 132.433 19.8597 131.236C20.3016 130.039 21.7349 129.377 22.931 129.819L30.1078 132.468C33.5467 133.737 37.2323 132.037 38.5029 128.595L56.2348 80.5569C57.5053 77.1149 55.8083 73.4278 52.3694 72.1584L47.4353 70.3372L31.4158 113.736C30.9739 114.933 29.5406 115.595 28.3445 115.153C27.1484 114.712 26.4884 113.278 26.9303 112.08L43.7232 66.5863C44.1651 65.3891 45.5984 64.7279 46.7945 65.1694L53.9713 67.8185C59.8025 69.9709 62.8194 76.5258 60.665 82.3623L42.9331 130.4C40.834 136.087 34.2818 139.11 28.4506 136.958Z" fill="#282D33"/>
<path d="M14.3662 95.0299C13.1701 94.5883 12.5102 93.1545 12.9521 91.9572C22.398 66.3668 36.6271 61.4166 46.7943 65.1695C47.9904 65.611 48.6504 67.0449 48.2085 68.2421C47.7666 69.4393 46.3333 70.1005 45.1371 69.659C37.0632 66.6788 25.6683 71.3148 17.4376 93.6129C16.9957 94.8101 15.5624 95.4714 14.3662 95.0299Z" fill="#282D33"/>
<path d="M21.2737 134.309C11.1066 130.556 3.5062 117.548 12.9522 91.9574C13.3941 90.7602 14.8274 90.099 16.0235 90.5405C17.2197 90.982 17.9348 92.2663 17.4377 93.6131C9.20699 115.911 14.8018 126.989 22.8757 129.969C24.0718 130.41 24.7318 131.844 24.2898 133.041C23.8479 134.239 22.4699 134.75 21.2737 134.309Z" fill="#282D33"/>
<path d="M158.621 111.548C157.425 111.107 156.765 109.673 157.207 108.476C168.31 78.3957 152.848 44.8016 122.796 33.7085C92.7426 22.6153 59.312 38.1623 48.2089 68.2423C47.7669 69.4395 46.3336 70.1007 45.1375 69.6592C43.9414 69.2177 43.2814 67.7838 43.7233 66.5866C55.7656 33.9625 92.0075 17.2427 124.453 29.2189C157.047 41.2503 173.585 77.4521 161.543 110.076C161.25 111.329 159.817 111.99 158.621 111.548Z" fill="#282D33"/>
<path d="M134.757 176.198C133.561 175.756 132.901 174.322 133.343 173.125L135.995 165.942C136.437 164.745 137.87 164.083 139.066 164.525C140.262 164.966 140.922 166.4 140.48 167.597L137.829 174.781C137.332 176.128 135.953 176.639 134.757 176.198Z" fill="#282D33"/>
<path d="M21.2739 134.309C20.0778 133.867 19.4178 132.433 19.8598 131.236L22.5113 124.053C22.9532 122.855 24.3865 122.194 25.5826 122.636C26.7787 123.077 27.4387 124.511 26.9968 125.708L24.3453 132.892C23.8481 134.238 22.4701 134.75 21.2739 134.309Z" fill="#282D33"/>
</g>
<defs>
<clipPath id="clip0">
<rect width="165.753" height="134.317" fill="white" transform="translate(46.7036 0.52002) rotate(20.2601)"/>
</clipPath>
</defs>
</svg>
