<svg width="21" height="22" viewBox="0 0 21 22" fill="none" xmlns="http://www.w3.org/2000/svg">
<path fill-rule="evenodd" clip-rule="evenodd" d="M17.0919 13.1148L19.2132 10.9934C21.5467 8.65999 21.5467 4.84161 19.2132 2.50816C16.8798 0.17471 13.0614 0.17471 10.7279 2.50816L8.6066 4.62948C8.18234 5.05375 8.18234 5.61943 8.6066 6.0437C9.03087 6.46796 9.59655 6.46796 10.0208 6.0437L12.1421 3.92238C13.6978 2.36674 16.2434 2.36674 17.799 3.92238C19.3546 5.47801 19.3546 8.02359 17.799 9.57923L15.6777 11.7006C15.2534 12.1248 15.2534 12.6905 15.6777 13.1148C16.1019 13.539 16.6676 13.539 17.0919 13.1148ZM10.7279 19.4787L12.8492 17.3574C13.2735 16.9331 13.2735 16.3675 12.8492 15.9432C12.425 15.5189 11.8593 15.5189 11.435 15.9432L9.31371 18.0645C7.75807 19.6201 5.21249 19.6201 3.65685 18.0645C2.10122 16.5089 2.10122 13.9633 3.65685 12.4077L5.77817 10.2863C6.20244 9.86207 6.20244 9.29639 5.77817 8.87212C5.35391 8.44786 4.78823 8.44786 4.36396 8.87212L2.24264 10.9934C-0.0908117 13.3269 -0.0908117 17.1453 2.24264 19.4787C4.57609 21.8122 8.39447 21.8122 10.7279 19.4787ZM8.6066 14.529L14.2634 8.87212C14.6877 8.44786 14.6877 7.88217 14.2634 7.45791C13.8392 7.03364 13.2735 7.03364 12.8492 7.45791L7.19238 13.1148C6.76812 13.539 6.76812 14.1047 7.19238 14.529C7.61665 14.9532 8.18233 14.9532 8.6066 14.529Z"/>
</svg>
