<svg width="21" height="21" viewBox="0 0 21 21" fill="none" xmlns="http://www.w3.org/2000/svg">
<path fill-rule="evenodd" clip-rule="evenodd" d="M17.0919 12.8491L19.2132 10.7278C21.5467 8.39437 21.5467 4.57599 19.2132 2.24254C16.8798 -0.0909152 13.0614 -0.0909147 10.7279 2.24254L8.6066 4.36386C8.18234 4.78812 8.18234 5.35381 8.6066 5.77807C9.03087 6.20234 9.59655 6.20234 10.0208 5.77807L12.1421 3.65675C13.6978 2.10112 16.2434 2.10112 17.799 3.65675C19.3546 5.21239 19.3546 7.75797 17.799 9.3136L15.6777 11.4349C15.2534 11.8592 15.2534 12.4249 15.6777 12.8491C16.1019 13.2734 16.6676 13.2734 17.0919 12.8491ZM10.7279 19.2131L12.8492 17.0918C13.2735 16.6675 13.2735 16.1018 12.8492 15.6776C12.425 15.2533 11.8593 15.2533 11.435 15.6776L9.31371 17.7989C7.75807 19.3545 5.21249 19.3545 3.65685 17.7989C2.10122 16.2433 2.10122 13.6977 3.65685 12.142L5.77817 10.0207C6.20244 9.59645 6.20244 9.03076 5.77817 8.6065C5.35391 8.18223 4.78823 8.18223 4.36396 8.6065L2.24264 10.7278C-0.0908117 13.0613 -0.0908117 16.8796 2.24264 19.2131C4.57609 21.5466 8.39447 21.5466 10.7279 19.2131ZM8.6066 14.2634L14.2634 8.6065C14.6877 8.18223 14.6877 7.61655 14.2634 7.19228C13.8392 6.76802 13.2735 6.76802 12.8492 7.19228L7.19238 12.8491C6.76812 13.2734 6.76812 13.8391 7.19238 14.2634C7.61665 14.6876 8.18233 14.6876 8.6066 14.2634Z" fill="white"/>
</svg>
