<svg width="102" height="111" viewBox="0 0 102 111" fill="none" xmlns="http://www.w3.org/2000/svg">
<path d="M72.8801 0H28.1681C22.8765 0 18.5869 4.28963 18.5869 9.58115V54.2932C18.5869 59.5847 22.8765 63.8743 28.1681 63.8743H72.8801C78.1716 63.8743 82.4613 59.5847 82.4613 54.2932V9.58115C82.4613 4.28963 78.1716 0 72.8801 0Z" fill="#1976D2"/>
<path fill-rule="evenodd" clip-rule="evenodd" d="M0.498047 110.008H6.91901V88.7297L23.8888 110.008H29.2638V76.4738H22.8764V97.1451L6.44155 76.4674H0.498047V110.001V110.008ZM58.2819 84.4757H66.0714L70.7917 91.8388L75.5584 84.4757H83.1562L74.5683 96.8593L83.6065 110.009H75.8123L70.648 102.025L65.4838 110.009H57.8811L66.8699 97.003L58.2819 84.4757ZM94.7191 89.4866V101.594C94.686 101.951 94.7312 102.311 94.8516 102.649C94.972 102.987 95.1647 103.294 95.4161 103.55C95.6676 103.806 95.9718 104.004 96.3076 104.13C96.6434 104.256 97.0026 104.307 97.3603 104.28C98.3963 104.244 99.4182 104.028 100.38 103.641H101.122V108.729C99.5014 109.637 97.6655 110.091 95.8081 110.043C91.3609 110.043 88.3492 108.274 88.3492 102.345V89.4866H85.189L85.1539 84.4757H88.3476V78.0882H94.735V84.4757H101.122L101.092 89.4866H94.7191ZM45.8185 110.206C47.8045 110.285 49.7823 109.907 51.5989 109.101C53.4156 108.294 55.0225 107.081 56.2955 105.554L52.1356 102.405C51.3269 103.23 50.3587 103.882 49.29 104.322C48.2213 104.761 47.0744 104.978 45.9191 104.96C44.455 105.07 43.0024 104.631 41.8443 103.729C40.6862 102.826 39.9056 101.525 39.6546 100.079H57.4915C57.5394 99.4271 57.5873 98.528 57.5873 97.9691C57.5873 90.903 53.667 84.4405 45.1079 84.4405C43.4142 84.4252 41.7349 84.7525 40.1709 85.4027C38.6069 86.0528 37.1905 87.0125 36.0068 88.2239C34.8231 89.4354 33.8965 90.8737 33.2827 92.4523C32.669 94.0309 32.3807 95.7173 32.4352 97.4102C32.4352 105.129 38.1264 110.201 45.8249 110.201L45.8185 110.206ZM39.554 95.4173C40.1273 92.2093 42.0882 90.1174 45.1015 90.1174C48.1611 90.1174 50.0741 92.2556 50.5053 95.4173H39.5604H39.554Z" fill="#333333"/>
<path fill-rule="evenodd" clip-rule="evenodd" d="M40.9088 17.5691V46.3126C40.9088 47.5831 40.4041 48.8016 39.5057 49.7C38.6073 50.5984 37.3888 51.1031 36.1182 51.1031C34.8477 51.1031 33.6292 50.5984 32.7308 49.7C31.8324 48.8016 31.3276 47.5831 31.3276 46.3126V17.5691H40.9088Z" fill="white"/>
<path opacity="0.15" fill-rule="evenodd" clip-rule="evenodd" d="M40.9088 37.4149L31.3276 18.152V17.5691H40.9088V37.4149Z" fill="#1976D2"/>
<path fill-rule="evenodd" clip-rule="evenodd" d="M64.8956 12.7782C66.1661 12.7782 67.3846 13.2829 68.283 14.1813C69.1814 15.0797 69.6861 16.2982 69.6861 17.5688V27.1499C69.6861 28.4205 69.1814 29.639 68.283 30.5374C67.3846 31.4358 66.1661 31.9405 64.8956 31.9405C63.625 31.9405 62.4065 31.4358 61.5081 30.5374C60.6097 29.639 60.105 28.4205 60.105 27.1499V17.5688C60.105 16.2982 60.6097 15.0797 61.5081 14.1813C62.4065 13.2829 63.625 12.7782 64.8956 12.7782ZM32.7524 14.1691C33.6643 13.2573 34.9009 12.7451 36.1904 12.7451C37.4799 12.7451 38.7166 13.2573 39.6285 14.1691L68.249 42.7848C69.1614 43.6972 69.674 44.9348 69.674 46.2252C69.674 47.5156 69.1614 48.7532 68.249 49.6656C67.3365 50.5781 66.0989 51.0907 64.8085 51.0907C63.5181 51.0907 62.2806 50.5781 61.3681 49.6656L32.7524 21.0467C32.3007 20.5952 31.9424 20.0591 31.6979 19.4691C31.4535 18.879 31.3276 18.2466 31.3276 17.6079C31.3276 16.9692 31.4535 16.3368 31.6979 15.7468C31.9424 15.1567 32.3007 14.6206 32.7524 14.1691Z" fill="white"/>
</svg>
