<svg width="158" height="159" viewBox="0 0 158 159" fill="none" xmlns="http://www.w3.org/2000/svg">
<g clip-path="url(#clip0)">
<path d="M25.8468 132.786L31.0856 156.008L80.7504 144.804C80.7504 144.804 92.8127 141.779 90.5025 131.539C90.5025 131.539 93.1666 142.003 109.048 138.42C124.929 134.837 153.804 128.323 153.804 128.323L148.565 105.101L148.142 103.226L26.8676 130.585L25.8468 132.786Z" fill="#0098F7"/>
<path d="M87.1179 14.9814L106.452 97.3219L84.0739 102.37L61.5515 107.451L43.8056 24.7523L49.9629 22.4538L73.0433 53.474L81.2921 15.3862L87.1179 14.9814Z" fill="#FFE200"/>
<path d="M82.0719 146.627L31.5408 158.027C30.3858 158.287 29.1474 157.506 28.8871 156.352L13.2686 87.118C13.0082 85.9642 13.6793 84.9033 14.6573 84.5311C15.2023 84.2566 28.4949 79.2874 24.7204 62.5559L18.6682 35.7279C18.4404 34.7182 18.9671 33.69 19.8008 33.3503L47.5753 18.5963C48.5209 18.0798 49.806 18.3962 50.4344 19.1639L74.8692 52.1522C75.5626 53.2084 75.3898 54.46 74.3649 55.2975C73.3076 55.9908 72.0549 55.8186 71.2171 54.795L47.8947 23.3747L23.3899 36.4816L29.0841 61.7231C32.8261 78.3103 22.3499 85.6757 18.0228 88.016L32.7628 153.355L81.1282 142.444C86.1813 141.304 89.3127 136.354 88.1739 131.306C87.9136 130.152 88.6964 128.914 89.8514 128.653C91.0064 128.393 92.2448 129.175 92.5051 130.328C94.309 137.652 89.5793 144.934 82.0719 146.627Z" fill="#282D33"/>
<path d="M155.27 130.115L104.738 141.514C97.3754 143.175 89.945 138.485 88.2856 131.129C88.0253 129.975 88.8081 128.738 89.9631 128.477C91.1181 128.217 92.3565 128.998 92.6168 130.152C93.7556 135.2 98.7092 138.327 103.762 137.187L152.128 126.276L137.388 60.9371C132.475 60.6812 119.851 58.527 116.109 41.9398L110.447 16.8426L82.6888 15.5259L75.3388 53.5625L78.495 67.5535C78.7553 68.7074 77.9725 69.945 76.8175 70.2056C75.6625 70.4661 74.4241 69.6844 74.1638 68.5306L70.9099 54.1069C70.8448 53.8184 70.7797 53.5299 70.859 53.2089L78.7316 12.7807C78.937 11.6734 79.9943 10.9801 81.07 11.0406L112.489 12.441C113.565 12.5015 114.337 13.2367 114.533 14.1021L120.585 40.9301C124.359 57.6616 138.498 56.4425 139.108 56.4565C140.295 56.3401 141.213 57.0427 141.473 58.1966L157.091 127.43C157.24 128.761 156.569 129.822 155.27 130.115Z" fill="#282D33"/>
<path d="M146.354 90.5941L119.212 96.7172C118.057 96.9778 116.818 96.1961 116.558 95.0422L97.5677 14.8978C97.3074 13.7439 98.0902 12.5063 99.2452 12.2457C100.4 11.9851 101.639 12.7668 101.899 13.9207L120.257 91.9341L145.378 86.267C146.533 86.0064 147.771 86.7881 148.032 87.942C148.292 89.0959 147.653 90.301 146.354 90.5941Z" fill="#282D33"/>
<path d="M149.608 105.018L25.8791 132.93C24.7241 133.191 23.4857 132.409 23.2254 131.255C22.9651 130.101 23.7479 128.863 24.9029 128.603L148.632 100.691C149.787 100.43 151.025 101.212 151.285 102.366C151.546 103.52 150.907 104.725 149.608 105.018Z" fill="#282D33"/>
<path d="M49.912 112.351L22.6252 118.506C21.4702 118.767 20.2318 117.985 19.9715 116.831C19.7112 115.677 20.494 114.44 21.649 114.179L46.7702 108.512L29.8561 30.1729C29.5958 29.019 30.3786 27.7814 31.5336 27.5208C32.6886 27.2602 33.927 28.0419 34.1873 29.1958L51.4451 109.731C51.8823 110.997 51.067 112.09 49.912 112.351Z" fill="#282D33"/>
<path d="M66.2426 23.3285C53.8264 26.1295 47.732 22.6539 47.5226 22.398C46.4611 21.728 46.1683 20.4299 46.8393 19.369C47.5103 18.3082 48.8097 18.0151 49.8386 18.5408C50.0155 18.6525 55.0158 21.3139 65.4108 18.9689C75.9501 16.5913 79.1791 12.0734 79.291 11.8966C79.962 10.8358 81.4383 10.6543 82.3554 11.3569C83.4169 12.0269 83.5653 13.3576 82.8943 14.4184C82.4937 14.6603 78.6588 20.5275 66.2426 23.3285Z" fill="#282D33"/>
</g>
<defs>
<clipPath id="clip0">
<rect width="131.278" height="132.632" fill="white" transform="translate(0.187988 29.1353) rotate(-12.7127)"/>
</clipPath>
</defs>
</svg>
