<svg width="81" height="11" viewBox="0 0 81 11" fill="none" xmlns="http://www.w3.org/2000/svg">
<g clip-path="url(#clip0)">
<path d="M21.876 8.91932H20.4561L23.3353 2.14758H26.1357C26.6485 2.14758 27.0035 2.18742 27.2795 2.30692C27.5556 2.42642 27.7134 2.62559 27.8317 2.86459C27.9501 3.10359 27.9501 3.4621 27.8712 3.8206C27.7923 4.1791 27.674 4.49779 27.4373 4.81645C27.2401 5.13511 27.0035 5.41396 26.7668 5.6131C26.5301 5.81229 26.2935 5.97162 26.0569 6.05128C25.8202 6.1708 25.5046 6.21062 25.1102 6.29028C24.8736 6.33013 24.4792 6.33013 23.8481 6.33013H22.9409L21.876 8.91932ZM23.4537 5.21478H23.8875C24.6369 5.21478 25.1497 5.17496 25.4258 5.09526C25.6624 4.97578 25.8991 4.81645 26.0963 4.61726C26.2935 4.41812 26.4118 4.21894 26.4513 3.9401C26.4907 3.78077 26.4907 3.66126 26.4118 3.54177C26.333 3.42226 26.2935 3.34259 26.1357 3.30276C26.0174 3.26293 25.7413 3.2231 25.268 3.2231H24.2425L23.4537 5.21478Z" fill="#6CBBFF"/>
<path d="M30.9472 7.40564H28.2257L27.0819 8.91932H25.6226L30.9472 2.14758H32.525L32.17 8.91932H30.8289L30.9472 7.40564ZM31.0261 6.29028L31.1839 3.5816L28.9357 6.33013L31.0261 6.29028Z" fill="#6CBBFF"/>
<path d="M35.7588 8.91932H34.3389L35.4432 6.29028L34.4966 2.14758H35.9954L36.4293 4.0596C36.5476 4.5376 36.5871 4.85626 36.6265 5.05545C36.7843 4.85626 36.9815 4.65712 37.1787 4.41812L38.007 3.50193L39.2692 2.14758H40.8862L36.8632 6.4098L35.7588 8.91932Z" fill="#6CBBFF"/>
<path d="M40.1367 8.91932H38.7168L41.5962 2.14758H44.3963C44.9093 2.14758 45.2641 2.18742 45.5403 2.30692C45.8165 2.42642 45.974 2.62559 46.0924 2.86459C46.2107 3.14343 46.2107 3.4621 46.1318 3.8206C46.0529 4.1791 45.9349 4.49779 45.6982 4.81645C45.5009 5.13511 45.2641 5.41396 45.0277 5.6131C44.791 5.81229 44.5542 5.97162 44.3174 6.05128C44.0811 6.1708 43.7654 6.21062 43.3712 6.29028C43.1344 6.33013 42.7398 6.33013 42.1088 6.33013H41.2017L40.1367 8.91932ZM41.6752 5.21478H42.1088C42.8582 5.21478 43.3712 5.17496 43.647 5.09526C43.9232 5.01559 44.16 4.85626 44.3174 4.65712C44.5147 4.45793 44.6331 4.21894 44.6726 3.97993C44.712 3.8206 44.712 3.7011 44.6331 3.5816C44.5937 3.4621 44.5147 3.38243 44.3569 3.34259C44.1995 3.30276 43.9627 3.26293 43.4891 3.26293H42.464L41.6752 5.21478Z" fill="#F6F9FD"/>
<path d="M46.0926 6.25035C46.1715 5.85203 46.3294 5.41385 46.5267 4.97567C46.8029 4.3782 47.1576 3.86034 47.5917 3.42217C48.0254 2.984 48.4989 2.6255 49.051 2.38649C49.603 2.14749 50.1949 1.98816 50.8259 1.98816C51.6542 1.98816 52.2852 2.267 52.7192 2.78483C53.1529 3.30267 53.2318 3.97984 53.074 4.85619C52.9161 5.57318 52.6009 6.25035 52.1273 6.92753C51.6542 7.60471 51.0627 8.12255 50.4313 8.48107C49.7609 8.83954 49.0904 9.03873 48.3411 9.03873C47.7097 9.03873 47.1971 8.8794 46.842 8.60055C46.4872 8.3217 46.2504 7.96322 46.1321 7.52504C46.0137 7.12672 46.0137 6.68853 46.0926 6.25035ZM47.5128 6.25035C47.3944 6.72839 47.4733 7.08686 47.7097 7.40552C47.9465 7.72423 48.2622 7.88356 48.7353 7.88356C49.1299 7.88356 49.5241 7.76404 49.9187 7.52504C50.3129 7.28605 50.7075 6.88772 51.0232 6.40968C51.378 5.89188 51.5753 5.41385 51.6937 4.93585C51.812 4.41801 51.7331 3.97984 51.5358 3.66117C51.299 3.3425 50.9838 3.223 50.5102 3.223C49.8398 3.223 49.2088 3.54167 48.6169 4.17901C48.0254 4.77652 47.6707 5.49351 47.5128 6.25035Z" fill="#F6F9FD"/>
<path d="M53.1932 6.72813L54.5345 6.64846C54.4555 7.08664 54.4555 7.36549 54.5739 7.48497C54.7314 7.72401 55.0865 7.84348 55.6386 7.84348C56.1121 7.84348 56.4668 7.76382 56.7036 7.60449C56.9404 7.44516 57.0982 7.24597 57.1373 7.00698C57.1767 6.80783 57.1373 6.64846 56.9798 6.48913C56.9009 6.36965 56.5852 6.21032 56.1121 6.01114C55.6386 5.77214 55.2838 5.57296 55.0865 5.45348C54.8892 5.29415 54.7314 5.09496 54.6524 4.85597C54.5739 4.61697 54.5739 4.33812 54.613 4.01946C54.7314 3.46178 55.0471 2.98378 55.5596 2.58544C56.0726 2.22694 56.7036 2.02777 57.4924 2.02777C58.2812 2.02777 58.8727 2.22694 59.2279 2.58544C59.5831 2.94394 59.7405 3.46178 59.6225 4.05929L58.2418 4.09912C58.2812 3.78045 58.2023 3.54145 58.0445 3.34228C57.887 3.18295 57.6108 3.06345 57.2162 3.06345C56.822 3.06345 56.5458 3.14311 56.3485 3.26261C56.1516 3.38212 56.0332 3.58128 55.9937 3.78045C55.9543 3.97962 55.9937 4.13895 56.1121 4.25846C56.2305 4.37798 56.5458 4.57712 57.0193 4.7763C57.7292 5.09496 58.1628 5.37381 58.3602 5.61281C58.5969 5.93147 58.6759 6.3298 58.5969 6.80783C58.4785 7.4053 58.1234 7.92315 57.5713 8.32148C57.0193 8.71985 56.309 8.95884 55.4413 8.95884C54.8497 8.95884 54.3766 8.87918 53.982 8.67999C53.5878 8.48085 53.351 8.202 53.2326 7.84348C53.1143 7.56463 53.1143 7.16631 53.1932 6.72813Z" fill="#F6F9FD"/>
<path d="M61.8709 8.91932H60.4507L62.8566 3.26293H60.8453L61.3184 2.14758H66.7222L66.2486 3.26293H64.2768L61.8709 8.91932Z" fill="#F6F9FD"/>
<path d="M64.5926 7.64435H65.9339L65.3814 8.91899H64.0405L64.5926 7.64435Z" fill="#F6F9FD"/>
<path d="M66.6836 8.91932L69.563 2.14758H70.9828L69.7603 5.01559L73.5466 2.14758H75.4399L71.7716 4.81645L73.1524 8.91932H71.5743L70.5886 5.69277L69.0106 6.84798L68.1428 8.91932H66.6836Z" fill="#F6F9FD"/>
<path d="M73.4277 8.91932L73.8614 7.84382L78.7916 3.26293H75.5969L76.07 2.14758H81.0006L80.606 3.2231L75.6363 7.84382C76.07 7.84382 76.3068 7.84382 76.3857 7.84382C76.7014 7.84382 77.0956 7.84382 77.6086 7.84382H79.2257L78.7521 8.95913L73.4277 8.91932Z" fill="#F6F9FD"/>
<path d="M14.8697 5.42322C12.306 5.86136 9.74222 6.29954 7.96733 6.6182C6.19243 6.9369 5.28527 7.01657 4.37807 7.09623C3.5498 7.1759 2.68207 7.1759 1.85379 7.09623C1.22271 7.01657 0.591632 6.9369 0 6.77753C0.749404 7.13604 1.53825 7.41489 2.36653 7.61404C3.5498 7.89289 4.77252 8.01241 5.99521 7.97255C7.25735 7.93274 8.48008 7.81322 9.74222 7.61404L11.8327 7.37504C11.5171 7.77341 11.3199 8.21155 11.1621 8.68958C11.0438 9.16758 11.0833 9.64557 11.2411 10.1236C11.3594 10.4423 11.5566 10.7609 11.8327 10.9999C11.9905 10.2431 12.2271 9.52609 12.5032 8.84891C12.8187 8.13188 13.2131 7.49456 13.6865 6.85719C14.0415 6.33939 14.4359 5.86136 14.8697 5.42322Z" fill="#F6F9FD"/>
<path d="M2.73047 5.57682C5.29421 5.13869 7.85797 4.7005 9.63287 4.38184C11.4078 4.06316 12.3149 3.98349 13.2221 3.90383C14.0504 3.82416 14.9181 3.82416 15.7464 3.90383C16.3775 3.98349 17.0086 4.06316 17.6002 4.2225C16.8508 3.86399 16.0619 3.58516 15.2337 3.38599C14.0504 3.10715 12.8277 2.98765 11.605 3.02749C10.3428 3.06732 9.12011 3.18682 7.85797 3.38599L5.7675 3.62499C6.08307 3.22665 6.28025 2.78848 6.43802 2.31048C6.55636 1.83247 6.51694 1.35447 6.35914 0.876465C6.24083 0.557795 6.04361 0.239124 5.7675 0.00012207C5.60974 0.756963 5.3731 1.47397 5.09699 2.15114C4.78146 2.86815 4.38706 3.50549 3.91374 4.14283C3.55875 4.66065 3.16433 5.13869 2.73047 5.57682Z" fill="#57B2FF"/>
</g>
<defs>
<clipPath id="clip0">
<rect width="81" height="11" fill="white"/>
</clipPath>
</defs>
</svg>
