<svg width="40" height="41" viewBox="0 0 40 41" fill="none" xmlns="http://www.w3.org/2000/svg">
<path fill-rule="evenodd" clip-rule="evenodd" d="M11.8 17.0808L9 19.8808L18 28.8808L38 8.88081L35.2 6.08081L18 23.2808L11.8 17.0808Z" fill="#2196F3"/>
<path fill-rule="evenodd" clip-rule="evenodd" d="M36 20.8809C36 29.6809 28.8 36.8809 20 36.8809C11.2 36.8809 4 29.6809 4 20.8809C4 12.0809 11.2 4.88086 20 4.88086C21.6 4.88086 23 5.08086 24.4 5.48086L27.6 2.28086C25.2 1.48086 22.6 0.880859 20 0.880859C9 0.880859 0 9.88086 0 20.8809C0 31.8809 9 40.8809 20 40.8809C31 40.8809 40 31.8809 40 20.8809H36Z" fill="#FFD700"/>
</svg>
