<svg width="171" height="189" viewBox="0 0 171 189" fill="none" xmlns="http://www.w3.org/2000/svg">
<g clip-path="url(#clip0)">
<path d="M70.5202 33.3927C59.9255 35.9401 55.1994 29.6929 53.5316 21.4796L49.7581 22.3869C41.0501 24.4807 34.2566 31.3443 32.3713 40.1043L19.6044 101.936L37.403 103.809L44.7205 65.2852L54.0109 105.2L86.5207 97.3829L71.1008 33.2531C70.8105 33.3229 70.6654 33.3578 70.5202 33.3927Z" fill="#0098F7"/>
<path d="M54.0107 105.2L75.7724 177.188L95.8008 172.372L89.9769 112.396L86.3754 97.4177L54.0107 105.2Z" fill="#FFE200"/>
<path d="M119.41 91.782L86.9005 99.5989C85.7394 99.8781 84.4787 99.1045 84.199 97.9411L68.779 33.8113C68.4993 32.6479 69.2705 31.3857 70.4316 31.1065C71.5926 30.8273 72.8533 31.601 73.133 32.7644L88.0285 94.7129L116.184 87.9429L106.948 50.1688C106.703 49.1509 107.219 48.1039 108.165 47.5687C109.146 47.1791 110.267 47.371 110.947 48.2843L133.688 77.7349L144.83 70.441L106.925 23.2548C106.064 22.231 106.365 20.9281 107.241 20.1021C108.117 19.2762 109.563 19.5438 110.389 20.4221L149.87 69.6908C150.3 70.2026 150.44 70.7843 150.289 71.4358C150.139 72.0873 149.808 72.6282 149.263 72.9132L134.261 82.6733C133.35 83.3539 132.049 83.0514 131.224 82.173L113.639 59.4815L120.772 89.1471C120.912 89.7287 120.762 90.3802 120.577 90.8862C120.391 91.3923 119.991 91.6424 119.41 91.782Z" fill="#282D33"/>
<path d="M86.8998 99.5991L54.5351 107.381C53.9546 107.521 53.3042 107.369 52.7988 107.183C52.2935 106.997 51.9735 106.305 51.8337 105.723L44.7006 76.0578L39.3542 104.263C39.1635 105.386 38.1423 106.246 36.8763 106.089L19.2228 104.181C18.6073 104.175 18.067 103.844 17.6369 103.332C17.2068 102.82 17.0669 102.238 17.2173 101.587L29.9843 39.7552C32.1302 30.1635 39.6546 22.5089 49.0882 20.2405L52.8617 19.3332C53.4422 19.1936 54.0927 19.3449 54.633 19.6765C55.1733 20.008 55.4583 20.5548 55.5981 21.1365C56.5719 25.8248 58.3921 28.9251 60.9484 30.6179C63.1446 32.0896 66.257 32.2641 69.8853 31.3917C70.0305 31.3568 70.1756 31.3219 70.3207 31.287C70.9013 31.1474 71.5168 31.1533 72.0571 31.4848C72.5974 31.8164 72.8824 32.3632 73.0222 32.9448L88.4072 96.9293C88.832 98.0577 88.206 99.285 86.8998 99.5991ZM55.6632 102.495L83.819 95.7251L69.448 35.9578C65.3144 36.6441 61.8067 36.1031 58.7451 34.2242C55.5033 32.2348 53.3229 28.9134 51.8788 24.1844L50.1372 24.6031C42.3 26.4876 36.1273 32.7404 34.3574 40.7035L22.1921 99.9292L35.4322 101.36L42.2985 64.7907C42.5241 63.8135 43.4002 62.9876 44.4511 62.8887C45.502 62.7899 46.4724 63.6333 46.7172 64.6512L55.6632 102.495Z" fill="#282D33"/>
<path d="M132.754 165.795L112.726 170.61C111.71 170.855 110.519 170.372 110.094 169.243L93.7185 127.956L98.0131 171.994C98.1127 173.047 97.4517 174.129 96.2906 174.408L76.2623 179.224C75.1012 179.503 73.8755 178.875 73.5958 177.712L51.869 105.869C51.7292 105.287 51.7344 104.67 52.0649 104.129C52.3954 103.589 52.906 103.158 53.4866 103.019L118.361 87.4196C118.942 87.28 119.592 87.4312 120.132 87.7628C120.673 88.0944 120.958 88.6411 121.097 89.2228L134.441 163.235C134.541 164.288 133.915 165.515 132.754 165.795ZM113.563 165.794L129.673 161.921L117.088 92.3405L56.7125 106.858L77.135 174.553L93.2448 170.68L87.5851 112.663C87.4855 111.611 88.1465 110.529 89.3076 110.25C90.4686 109.97 91.5143 110.488 91.9391 111.617L113.563 165.794Z" fill="#282D33"/>
<path d="M71.9156 35.3644L71.7704 35.3993L71.335 35.504C70.139 35.6378 69.0235 34.8292 68.8889 33.631C68.7543 32.4327 69.5604 31.3159 70.7564 31.1822L71.0467 31.1124C74.675 30.24 77.1878 28.559 78.5098 26.3952C80.0172 23.7254 80.2289 20.1364 78.9648 15.5179C78.825 14.9362 78.8303 14.3197 79.1608 13.7787C79.6364 13.2029 80.147 12.7725 80.7275 12.6329L84.501 11.7255C93.9346 9.45724 104.116 12.8544 110.388 20.4222C111.214 21.3005 111.093 22.714 110.072 23.5748C109.196 24.4008 107.784 24.2786 106.924 23.2548C101.728 16.9668 93.3871 14.2037 85.55 16.0881L83.8084 16.5069C84.672 21.3755 84.2399 25.3251 82.2569 28.5707C80.3089 31.9619 76.8501 34.1779 71.9156 35.3644Z" fill="#282D33"/>
<path d="M68.1581 21.6544C61.0465 23.3644 53.9106 23.6958 53.6203 23.7655C52.4243 23.8993 51.2738 22.9453 51.2843 21.7122C51.1497 20.5139 52.101 19.3622 53.332 19.3739C53.332 19.3739 60.433 18.8971 67.1091 17.2918C73.7852 15.6866 80.1816 12.918 80.3267 12.8831C81.4528 12.4585 82.7887 12.9064 83.2136 14.0348C83.6384 15.1633 83.3027 16.3208 82.0664 16.9257C81.7761 16.9955 75.2696 19.9445 68.1581 21.6544Z" fill="#282D33"/>
</g>
<defs>
<clipPath id="clip0">
<rect width="136.731" height="161.08" fill="white" transform="translate(0.32373 31.9658) rotate(-13.52)"/>
</clipPath>
</defs>
</svg>
