<svg width="37" height="24" viewBox="0 0 37 24" fill="none" xmlns="http://www.w3.org/2000/svg">
<path d="M14.5347 10.2198L16.9988 13.6388L21.5497 8.20367" stroke="#2196F3" stroke-width="1.5" stroke-miterlimit="10" stroke-linecap="round" stroke-linejoin="round"/>
<path d="M14.912 4.56059C15.8906 4.03004 16.9988 3.73529 18.1896 3.73529C21.9977 3.73529 25.0867 6.82425 25.0867 10.6324C25.0867 14.4405 21.9977 17.5295 18.1896 17.5295C14.3814 17.5295 11.2925 14.4405 11.2925 10.6324C11.2925 9.05255 11.823 7.5906 12.7191 6.42339" stroke="#2196F3" stroke-width="1.5" stroke-miterlimit="10" stroke-linecap="round" stroke-linejoin="round"/>
<path d="M4.24219 18.06V3.03966C4.24219 1.91961 5.1618 1 6.28184 1H30.0857C31.2057 1 32.1254 1.91961 32.1254 3.03966V18.0718" stroke="black" stroke-width="1.5" stroke-miterlimit="10" stroke-linejoin="round"/>
<path d="M1 20.3119C1 20.3119 1.5895 23 3.55841 23H32.8092C34.7781 23 35.3676 20.3119 35.3676 20.3119H1Z" stroke="black" stroke-width="1.5" stroke-miterlimit="10" stroke-linejoin="round"/>
</svg>
