<svg width="28" height="34" viewBox="0 0 28 34" fill="none" xmlns="http://www.w3.org/2000/svg">
<path d="M22.4202 19.0731V15.7962L11.963 11.6036L1.79492 15.3624V26.9762L11.4811 32.9999L22.4202 27.0726V22.8801" stroke="black" stroke-width="1.5" stroke-miterlimit="10" stroke-linecap="round"/>
<path d="M11.4329 20.4225L1.79492 15.3625" stroke="black" stroke-width="1.5" stroke-miterlimit="10"/>
<path d="M11.4331 20.4225L22.4204 15.7963" stroke="black" stroke-width="1.5" stroke-miterlimit="10"/>
<path d="M11.4814 20.4225V32.5663" stroke="black" stroke-width="1.5" stroke-miterlimit="10"/>
<path d="M17.2643 13.5796L6.80713 17.9167" stroke="black" stroke-width="1.5" stroke-miterlimit="10"/>
<path d="M6.71045 18.013V21.6272" stroke="black" stroke-width="1.5" stroke-miterlimit="10" stroke-linecap="round"/>
<path d="M25.9864 18.1093C27.5285 8.08586 13.698 7.8931 13.698 7.8931H6.18041V10.2544C6.18041 10.4954 5.89127 10.5917 5.79489 10.6399C5.55394 10.7363 5.2648 10.6881 5.12023 10.5435L1.21685 6.25465C0.927715 5.96551 0.927715 5.5318 1.21685 5.24266L5.21661 1.14652C5.36118 1.00195 5.65032 0.953763 5.89127 1.05014C6.08403 1.14652 6.18041 1.29109 6.18041 1.53204V3.89334H13.698C13.698 3.89334 28.0586 3.12231 26.6611 15.748C26.6611 15.748 26.5647 17.0974 25.7455 18.7358C24.7817 20.7598 22.7577 23.2657 18.5652 24.374" stroke="#2196F3" stroke-width="1.5" stroke-miterlimit="10" stroke-linecap="round"/>
</svg>
