<svg width="31" height="28" viewBox="0 0 31 28" fill="none" xmlns="http://www.w3.org/2000/svg">
<path d="M17.6902 16.6559C18.6557 16.3764 22.2879 14.9785 22.2879 10.7384C22.2879 10.7384 22.3799 9.66669 23.5293 9.66669C23.5293 9.66669 24.8167 9.52691 24.9547 11.0179C24.9547 11.0179 25.2765 13.8602 24.3569 15.724C24.3569 15.724 28.4949 15.724 28.6788 15.724C28.8628 15.724 29.5524 15.6774 29.9202 16.3298C30.1961 16.7491 30.1042 17.3549 30.0122 17.8208C29.9202 18.2402 28.6329 24.9498 28.6329 24.9498C28.4949 25.5556 27.9432 26.2545 26.9777 26.2545C26.0121 26.2545 17.5522 26.2545 17.5522 26.2545" stroke="#2196F3" stroke-width="1.5" stroke-miterlimit="10"/>
<path d="M15.713 16.3763H11.9888V27H15.713V16.3763Z" stroke="#2196F3" stroke-width="1.5" stroke-miterlimit="10" stroke-linecap="round"/>
<path d="M3.02295 6.31183H26.4716" stroke="black" stroke-width="1.5" stroke-miterlimit="10" stroke-linejoin="round"/>
<path d="M8.26437 3.65592C8.26437 3.8423 8.12644 4.02868 7.89655 4.02868C7.71264 4.02868 7.57471 3.88889 7.57471 3.65592C7.57471 3.46954 7.71264 3.32975 7.89655 3.32975C8.12644 3.28316 8.26437 3.46954 8.26437 3.65592Z" stroke="black" stroke-width="1.5" stroke-miterlimit="10"/>
<path d="M4.68967 3.65592C4.68967 3.8423 4.55173 4.02868 4.32184 4.02868C4.13793 4.02868 4 3.88889 4 3.65592C4 3.46954 4.13793 3.32975 4.32184 3.32975C4.55173 3.28316 4.68967 3.46954 4.68967 3.65592Z" stroke="black" stroke-width="1.5" stroke-miterlimit="10"/>
<path d="M11.6209 3.6559C11.6209 3.84228 11.483 4.02866 11.2531 4.02866C11.0692 4.02866 10.8853 3.88888 10.8853 3.6559C10.8853 3.46952 11.0232 3.28314 11.2531 3.28314C11.483 3.28314 11.6209 3.46952 11.6209 3.6559Z" stroke="black" stroke-width="1.5" stroke-miterlimit="10"/>
<path d="M9.78174 21.5018H2.51726C1.68967 21.5018 1 20.8029 1 19.9642V2.53763C1 1.69892 1.68967 1 2.51726 1H27.0234C27.851 1 28.5406 1.69892 28.5406 2.53763V13.5806" stroke="black" stroke-width="1.5" stroke-miterlimit="10"/>
</svg>
