<svg width="31" height="26" viewBox="0 0 31 26" fill="none" xmlns="http://www.w3.org/2000/svg">
<path d="M6.57861 24.3721H24.3544" stroke="black" stroke-width="1.5" stroke-miterlimit="10" stroke-linecap="round" stroke-linejoin="round"/>
<path d="M12.2993 20.9448V24.2293" stroke="black" stroke-width="1.5" stroke-miterlimit="10" stroke-linecap="round" stroke-linejoin="round"/>
<path d="M18.5874 20.9448V24.2293" stroke="black" stroke-width="1.5" stroke-miterlimit="10" stroke-linecap="round" stroke-linejoin="round"/>
<path d="M15.4664 10.8058C13.2917 10.8058 11.5425 9.90137 11.5425 8.80655C11.5425 7.71173 13.2917 6.80731 15.4664 6.80731C17.3102 6.80731 18.823 7.42612 19.2485 8.33054" stroke="#2196F3" stroke-width="1.5" stroke-miterlimit="10"/>
<path d="M15.4666 10.8057C17.6413 10.8057 19.3905 11.7101 19.3905 12.805C19.3905 13.8998 17.6413 14.8042 15.4666 14.8042C13.5283 14.8042 11.9209 14.0902 11.6372 13.1382" stroke="#2196F3" stroke-width="1.5" stroke-miterlimit="10"/>
<path d="M15.5137 4.80798V16.851" stroke="#2196F3" stroke-width="1.5" stroke-miterlimit="10"/>
<path d="M1 3.38005C1 2.04722 2.04007 1 3.36381 1H27.4746C28.7984 1 29.8384 2.04722 29.8384 3.38005V18.4696C29.8384 19.8024 28.7984 20.8496 27.4746 20.8496H3.36381C2.04007 20.8496 1 19.8024 1 18.4696V3.38005V3.38005Z" stroke="black" stroke-width="1.5" stroke-miterlimit="10" stroke-linejoin="round"/>
</svg>
