<svg width="25" height="34" viewBox="0 0 25 34" fill="none" xmlns="http://www.w3.org/2000/svg">
<path d="M10.082 32.394L1.61675 23.9288C0.794415 23.1064 0.794415 21.752 1.61675 20.978L1.85862 20.7362C2.68096 19.9138 4.0354 19.9138 4.80937 20.7362L8.63083 24.5576V19.5752V9.22341C8.63083 8.06246 9.59829 7.14337 10.7109 7.14337H10.9044C12.0653 7.14337 12.9844 8.11083 12.9844 9.22341V17.1082L21.0627 18.4626C21.0627 18.4626 23.6748 18.9947 23.6748 22.4292L22.9008 32.0554" stroke="black" stroke-width="1.5" stroke-miterlimit="10" stroke-linecap="round" stroke-linejoin="round"/>
<path d="M6.40564 10.9165C6.06703 10.2392 5.87354 9.46527 5.87354 8.64293C5.87354 5.88568 8.09869 3.66052 10.8559 3.66052C13.6132 3.66052 15.8384 5.88568 15.8384 8.64293C15.8384 9.46527 15.6449 10.2392 15.3063 10.9165" stroke="#2196F3" stroke-width="1.5" stroke-miterlimit="10" stroke-linecap="round" stroke-linejoin="round"/>
<path d="M3.93855 12.0774C3.40645 11.0616 3.11621 9.90062 3.11621 8.64292C3.11621 4.43448 6.55069 1 10.7591 1C14.9676 1 18.4021 4.43448 18.4021 8.64292C18.4021 9.85224 18.1118 11.0132 17.6281 12.029" stroke="#2196F3" stroke-width="1.5" stroke-miterlimit="10" stroke-linecap="round" stroke-linejoin="round"/>
</svg>
