<svg width="27" height="31" viewBox="0 0 27 31" fill="none" xmlns="http://www.w3.org/2000/svg">
<path d="M8.6228 17.8545C7.50383 17.8545 6.58301 16.9104 6.58301 15.7797V7.90033C6.58301 6.78135 7.50383 5.86053 8.6228 5.86053H23.9271C25.046 5.86053 25.9668 6.78135 25.9668 7.90033V15.7914C25.9668 16.9104 25.046 17.8662 23.9271 17.8662H8.6228V17.8545Z" stroke="#2196F3" stroke-width="1.5" stroke-miterlimit="10"/>
<path d="M9.0542 14.8356H18.8335" stroke="#2196F3" stroke-width="1.5" stroke-miterlimit="10" stroke-linejoin="round"/>
<path d="M9.0542 12.2247H15.5116" stroke="#2196F3" stroke-width="1.5" stroke-miterlimit="10" stroke-linejoin="round"/>
<path d="M21.0265 12.2715C22.1145 12.2644 22.9906 11.3766 22.9834 10.2887C22.9763 9.2008 22.0885 8.32467 21.0006 8.33183C19.9127 8.33898 19.0366 9.22672 19.0437 10.3146C19.0509 11.4026 19.9386 12.2787 21.0265 12.2715Z" stroke="#2196F3" stroke-width="1.5" stroke-miterlimit="10" stroke-linecap="round" stroke-linejoin="round"/>
<path d="M17.0386 20.0691V28.6479C17.0386 29.3706 16.4441 30 15.7215 30H2.31712C1.59445 30 1 29.3706 1 28.6479V2.30547C1 1.59445 1.59445 1 2.31712 1H15.7331C16.4558 1 17.0502 1.59445 17.0502 2.31712V3.6459" stroke="black" stroke-width="1.5" stroke-miterlimit="10" stroke-linejoin="round"/>
<path d="M2.94678 24.2886H15.0923" stroke="black" stroke-width="1.5" stroke-miterlimit="10" stroke-linejoin="round"/>
<path d="M7.93506 27.0743H10.1147" stroke="black" stroke-width="1.5" stroke-miterlimit="10" stroke-linecap="round" stroke-linejoin="round"/>
</svg>
